<?xml version="1.0" encoding="UTF-8"?>
<svg width="2732" height="2732" viewBox="0 0 2732 2732" xmlns="http://www.w3.org/2000/svg">
  
  <!-- Fond crème -->
  <rect width="2732" height="2732" fill="#FFFEE9"/>
  
  <!-- Smartphone -->
  <rect x="1066" y="866" width="600" height="1000" rx="80" fill="#797979"/>
  <rect x="1086" y="886" width="560" height="960" rx="60" fill="#151515"/>
  <rect x="1106" y="946" width="520" height="800" rx="30" fill="#FFFFFF"/>
  
  <!-- Haut-parleur -->
  <rect x="1286" y="906" width="160" height="20" rx="10" fill="#797979"/>
  
  <!-- Bouton home -->
  <circle cx="1366" cy="1816" r="30" fill="#797979"/>
  
  <!-- Voiture dans l'écran -->
  <g transform="translate(1366, 1346)">
    <!-- Corps voiture -->
    <rect x="-150" y="-40" width="300" height="80" rx="20" fill="#C1F11D"/>
    <!-- Toit -->
    <path d="M-100 -40 Q-80 -80 -30 -80 L30 -80 Q80 -80 100 -40" fill="#A8D814"/>
    <!-- Fenêtres -->
    <path d="M-90 -40 Q-70 -70 -25 -70 L25 -70 Q70 -70 90 -40" fill="#87CEEB"/>
    <!-- Roues -->
    <circle cx="-80" cy="40" r="25" fill="#151515"/>
    <circle cx="80" cy="40" r="25" fill="#151515"/>
    <!-- Jantes -->
    <circle cx="-80" cy="40" r="15" fill="#797979"/>
    <circle cx="80" cy="40" r="15" fill="#797979"/>
    <!-- Phares -->
    <circle cx="-150" cy="0" r="12" fill="#FFF3CD"/>
    <circle cx="150" cy="0" r="12" fill="#FFF3CD"/>
  </g>
  
  <!-- Bulle d'appel -->
  <g transform="translate(1166, 1100)">
    <circle cx="0" cy="0" r="100" fill="#C1F11D"/>
    <!-- Icône téléphone simple -->
    <path d="M-30 -30 L-20 -40 L-10 -30 L-5 -25 L5 -35 L15 -25 L20 -30 L30 -20 L25 -10 L15 0 L5 -10 L-5 0 L-15 -10 L-25 0 L-35 -10 L-30 -20" fill="#151515"/>
    <!-- Queue bulle -->
    <path d="M-70 70 L-90 90 L-60 80" fill="#C1F11D"/>
  </g>
  
  <!-- Petite icône WhatsApp -->
  <circle cx="1566" cy="1100" r="30" fill="#25D366"/>
  <path d="M1551 1085 L1556 1080 L1566 1090 L1576 1080 L1581 1085 L1576 1095 L1571 1100 L1576 1105 L1581 1115 L1576 1120 L1566 1110 L1556 1120 L1551 1115 L1556 1105 L1561 1100 L1556 1095" fill="#FFFFFF"/>
  
  <!-- Texte LAKO -->
  <text x="1366" y="2100" font-family="Arial, sans-serif" font-size="200" font-weight="bold" text-anchor="middle" fill="#151515">LAKO</text>
  
  <!-- Sous-titre -->
  <text x="1366" y="2220" font-family="Arial, sans-serif" font-size="80" text-anchor="middle" fill="#797979">CHAUFFEUR</text>
  
  <!-- Slogan -->
  <text x="1366" y="2350" font-family="Arial, sans-serif" font-size="50" text-anchor="middle" fill="#797979">Envoyez un message, Votre chauffeur arrive</text>
  
  <!-- Copyright -->
  <text x="1366" y="2500" font-family="Arial, sans-serif" font-size="35" text-anchor="middle" fill="#797979">© 2025 Lako Services</text>
  
</svg>